# xmcd CD database file
#
# Track frame offsets:
#	150
#	15260
#	26698
#	44381
#	54960
#	61118
#	80608
#	102685
#	116985
#	140874
#	160444
#	168908
#	198172
#	214727
#	231582
#
# Disc length: 3251 seconds
#
# Revision: 1
# Processed by: cddbd v1.5.2PL0 Copyright (c) Steve Scherf et al.
# Submitted via: CDex 1.70beta3
#
DISCID=d40cb10f
DTITLE=GONTITI - Merry Christmas with GONTITI ～best selection of christmas songs～
DYEAR=2010
DGENRE=New Age
TTITLE0=The Christmas Song
TTITLE1=Silent Night
TTITLE2=Have Yourself A Merry Little Christmas
TTITLE3=What Child Is This?(Greensleeves)
TTITLE4=Three Sweet Boon
TTITLE5=I Saw Mommy Kissing Santa Claus
TTITLE6=White Christmas
TTITLE7=Sleigh Ride
TTITLE8=Kiss On The Corner
TTITLE9=Dear Santa Claus
TTITLE10=LOVE
TTITLE11=Closed Book
TTITLE12=Green Christmas
TTITLE13=Snow Child
TTITLE14=あの夏の少女達
EXTD=YEAR: 2010
EXTT0=
EXTT1=
EXTT2=
EXTT3=
EXTT4=
EXTT5=
EXTT6=
EXTT7=
EXTT8=
EXTT9=
EXTT10=
EXTT11=
EXTT12=
EXTT13=
EXTT14=
PLAYORDER=
